{
	"accessors": [{
		"bufferView": 0,
		"byteOffset": 0,
		"componentType": 5123,
		"count": 2058,
		"type": "SCALAR",
		"max": [1642],
		"min": [0]
	}, {
		"bufferView": 1,
		"byteOffset": 0,
		"componentType": 5126,
		"count": 1643,
		"type": "VEC3",
		"max": [0.08342292904853821, 0.07023841142654419, 0.38882818818092346],
		"min": [-0.15538544952869415, -0.0036550089716911316, 0.10704652965068817],
		"name": "POSITION"
	}, {
		"bufferView": 1,
		"byteOffset": 12,
		"componentType": 5126,
		"count": 1643,
		"type": "VEC2",
		"max": [0, 1],
		"min": [0, 1],
		"name": "TEXCOORD_0"
	}, {
		"bufferView": 1,
		"byteOffset": 20,
		"componentType": 5126,
		"count": 1643,
		"type": "VEC3",
		"max": [0.9861001372337341, 0.9995887279510498, 0.9984809160232544],
		"min": [-0.991114616394043, -0.9999788999557495, -0.9935551881790161],
		"name": "NORMAL"
	}],
	"asset": {
		"generator": "Aspose.3D 23.2",
		"version": "2.0"
	},
	"buffers": [{
		"uri": "data:application/octet-stream;base64,",
		"byteLength": 69980
	}],
	"bufferViews": [{
		"buffer": 0,
		"byteOffset": 0,
		"byteLength": 4116,
		"target": 34963
	}, {
		"buffer": 0,
		"byteOffset": 4120,
		"byteLength": 65856,
		"byteStride": 32,
		"target": 34962
	}],
	"materials": [{
		"name": "heart_main",
		"pbrMetallicRoughness": {
			"baseColorFactor": [1, 1, 1, 1],
			"metallicFactor": 1,
			"roughnessFactor": 1
		},
		"emissiveFactor": [0, 0, 0],
		"alphaMode": "OPAQUE",
		"doubleSided": true
	}],
	"meshes": [{
		"primitives": [{
			"attributes": {
				"POSITION": 1,
				"TEXCOORD_0": 2,
				"NORMAL": 3
			},
			"indices": 0,
			"material": 0,
			"mode": 4
		}]
	}],
	"nodes": [{
		"matrix": [0.9812926641716255, 0, -0.19252197251533687, 0, 0, 1, 0, 0, 0.19252197251533687, 0, 0.9812926641716255, 0, -0.21575599908828735, 0, -0.25726813077926636, 1],
		"mesh": 0,
		"name": "pillows_mesh"
	}, {
		"children": [0],
		"matrix": [-1.3435885648505064E-07, -1.0000001343588565, 0, 0, 1.0000001343588565, -1.3435885648505064E-07, 0, 0, 0, 0, 1, 0, 0, -0.019999999552965164, 0, 1],
		"name": "Heart-shaped pillows"
	}],
	"scene": 0,
	"scenes": [{
		"nodes": [1]
	}]
}